<svg width="9" height="15" viewBox="0 0 9 15" fill="none" xmlns="http://www.w3.org/2000/svg">
<path d="M4.18125 13.6313V9L1.25625 11.925C1.11875 12.0625 0.94375 12.1313 0.73125 12.1313C0.51875 12.1313 0.34375 12.0625 0.20625 11.925C0.0687497 11.7875 0 11.6125 0 11.4C0 11.1875 0.0687497 11.0125 0.20625 10.875L3.88125 7.2L0.20625 3.525C0.0687497 3.3875 0 3.2125 0 3C0 2.7875 0.0687497 2.6125 0.20625 2.475C0.34375 2.3375 0.51875 2.26875 0.73125 2.26875C0.94375 2.26875 1.11875 2.3375 1.25625 2.475L4.18125 5.4V0.76875C4.18125 0.54375 4.25625 0.3595 4.40625 0.216C4.55625 0.0724999 4.73125 0.0005 4.93125 0C5.03125 0 5.125 0.0187499 5.2125 0.0562499C5.3 0.0937499 5.38125 0.15 5.45625 0.225L8.68125 3.45C8.75625 3.525 8.8095 3.60625 8.841 3.69375C8.8725 3.78125 8.888 3.875 8.8875 3.975C8.887 4.075 8.8715 4.16875 8.841 4.25625C8.8105 4.34375 8.75725 4.425 8.68125 4.5L5.98125 7.2L8.68125 9.9C8.75625 9.975 8.8095 10.0562 8.841 10.1437C8.8725 10.2312 8.888 10.325 8.8875 10.425C8.887 10.525 8.8715 10.6187 8.841 10.7062C8.8105 10.7937 8.75725 10.875 8.68125 10.95L5.45625 14.175C5.38125 14.25 5.3 14.3062 5.2125 14.3438C5.125 14.3813 5.03125 14.4 4.93125 14.4C4.73125 14.4 4.55625 14.328 4.40625 14.184C4.25625 14.04 4.18125 13.8558 4.18125 13.6313ZM5.68125 5.4L7.10625 3.975L5.68125 2.5875V5.4ZM5.68125 11.8125L7.10625 10.425L5.68125 9V11.8125Z" fill="#21B056"/>
</svg>
