<svg width="346" height="133" viewBox="0 0 346 133" fill="none" xmlns="http://www.w3.org/2000/svg">
<path d="M36.4176 73.5713L26.9238 30.6962H29.6188L38.5001 70.8763H39.9701L49.4639 30.6962H53.0164L62.4489 70.8763H63.9189L72.8002 30.6962H75.4952L66.0014 73.5713H60.4889L51.2401 33.8812L41.9914 73.5713H36.4176Z" fill="#255766"/>
<path d="M79.1515 73.5713V30.6962H100.405V33.0849H81.724V50.4187H99.0578V52.8687H81.724V71.1825H100.405V73.5713H79.1515Z" fill="#255766"/>
<path d="M106.164 73.5713V30.6962H108.736V50.1125H129.806V30.6962H132.379V73.5713H129.806V52.5012H108.736V73.5713H106.164Z" fill="#255766"/>
<path d="M140.055 73.5713V30.6962H161.308V33.0849H142.627V50.4187H159.961V52.8687H142.627V71.1825H161.308V73.5713H140.055Z" fill="#255766"/>
<path d="M190.403 73.5713L186.973 61.505H169.149L165.719 73.5713H163.086L175.397 30.6962H180.726L193.098 73.5713H190.403ZM169.884 59.055H186.299L179.011 33.3912H177.173L169.884 59.055Z" fill="#255766"/>
<path d="M223.292 73.5713H220.352L211.226 55.9312C209.919 56.0129 209.164 56.0537 208.96 56.0537H199.343V73.5713H196.771V30.6962H208.96C212.961 30.6962 216.167 31.7783 218.576 33.9424C220.944 36.1474 222.128 39.2712 222.128 43.3137C222.128 46.4579 221.414 49.0916 219.985 51.215C218.515 53.2975 216.432 54.7062 213.737 55.4412L223.292 73.5713ZM208.776 53.665C212.124 53.665 214.758 52.7666 216.677 50.97C218.515 49.2141 219.433 46.662 219.433 43.3137C219.433 40.0062 218.494 37.4745 216.616 35.7187C214.738 33.9628 212.124 33.0849 208.776 33.0849H199.343V53.665H208.776Z" fill="#255766"/>
<path d="M234.578 73.5713V30.6962H244.072V73.5713H234.578Z" fill="#255766"/>
<path d="M245.919 73.5713L247.328 30.6962H257.74L267.663 58.3812L277.585 30.6962H287.936L289.345 73.5713H280.158L279.484 50.0512H279.178L273.053 68.0587H262.273L256.086 50.0512H255.78L255.106 73.5713H245.919Z" fill="#255766"/>
<path d="M308.263 48.6425C312.224 50.2758 315.042 52.0316 316.716 53.91C318.308 55.7475 319.105 58.2587 319.105 61.4437C319.105 65.2821 317.716 68.3446 314.94 70.6313C312.163 72.9179 308.039 74.0613 302.567 74.0613C297.259 74.0613 292.645 73.3058 288.725 71.795L289.643 63.3425C291.154 63.8733 293.237 64.3429 295.891 64.7512C298.627 65.2412 300.995 65.4862 302.996 65.4862C307.283 65.4862 309.427 64.1387 309.427 61.4437C309.427 60.4229 309.141 59.6266 308.57 59.055C307.916 58.4833 306.895 57.8912 305.507 57.2787L297.667 53.91C292.359 51.6641 289.705 47.8258 289.705 42.3949C289.705 38.5974 291.093 35.6166 293.87 33.4524C296.646 31.2883 300.423 30.2062 305.201 30.2062C308.917 30.2062 312.98 30.7983 317.39 31.9824L316.532 40.4349C312.367 39.2916 308.488 38.7199 304.895 38.7199C303.057 38.7199 301.669 39.0466 300.73 39.6999C299.709 40.3533 299.198 41.2312 299.198 42.3337C299.198 44.1304 300.382 45.4779 302.751 46.3762L308.263 48.6425Z" fill="#255766"/>
<path d="M27.3965 95.8942V78.9933H28.4105V95.8942H27.3965Z" fill="#255766"/>
<path d="M32.1432 95.8942V83.1461H32.9159L33.0607 84.5947C33.6724 84.1602 34.4047 83.7819 35.2578 83.46C36.1431 83.122 37.0043 82.953 37.8413 82.953C39.0646 82.953 39.8854 83.2668 40.3039 83.8946C40.7063 84.5384 40.9075 85.5203 40.9075 86.8402V95.8942H39.9418V87.0092C39.9418 85.8502 39.7889 85.0374 39.483 84.5706C39.1611 84.1038 38.5092 83.8704 37.5274 83.8704C36.8031 83.8704 36.0063 84.0394 35.1371 84.3775C34.2196 84.7155 33.5436 85.0615 33.109 85.4157V95.8942H32.1432Z" fill="#255766"/>
<path d="M47.1629 95.8942L42.5997 83.1461H43.6862L47.7424 94.7594H47.839L51.8952 83.1461H52.9575L48.4184 95.8942H47.1629Z" fill="#255766"/>
<path d="M59.0182 96.0873C57.3443 96.0873 56.1049 95.5401 55.3001 94.4455C54.5274 93.3832 54.125 91.7414 54.0929 89.5201C54.0929 87.3955 54.455 85.7698 55.1793 84.643C55.9037 83.5163 57.1028 82.953 58.7768 82.953C60.5152 82.953 61.7063 83.4922 62.3501 84.5706C63.0101 85.6651 63.34 87.2747 63.34 89.3994V89.8582H55.1069C55.1552 91.6287 55.4771 92.9566 56.0727 93.8419C56.6521 94.7272 57.634 95.1699 59.0182 95.1699C60.2094 95.1699 61.4085 94.9687 62.6157 94.5663L62.7847 95.4354C61.497 95.87 60.2415 96.0873 59.0182 96.0873ZM55.1069 88.989H62.3501C62.334 87.2345 62.0765 85.9307 61.5775 85.0776C61.0785 84.2567 60.145 83.8463 58.7768 83.8463C57.4891 83.8463 56.5636 84.2728 56.0002 85.1259C55.453 85.979 55.1552 87.2667 55.1069 88.989Z" fill="#255766"/>
<path d="M65.8931 95.8942V83.1461H66.6657L66.8106 84.5947C67.4222 84.1602 68.1546 83.7819 69.0077 83.46C69.8929 83.122 70.7541 82.953 71.5911 82.953C72.8144 82.953 73.6353 83.2668 74.0538 83.8946C74.4562 84.5384 74.6574 85.5203 74.6574 86.8402V95.8942H73.6916V87.0092C73.6916 85.8502 73.5387 85.0374 73.2329 84.5706C72.911 84.1038 72.2591 83.8704 71.2772 83.8704C70.5529 83.8704 69.7561 84.0394 68.8869 84.3775C67.9695 84.7155 67.2934 85.0615 66.8588 85.4157V95.8942H65.8931Z" fill="#255766"/>
<path d="M81.417 95.9666C80.4995 95.9666 79.8556 95.7332 79.4854 95.2664C79.1152 94.7996 78.9301 94.0914 78.9301 93.1418V84.0153H76.7089V83.1461H78.9543V80.1764L79.8959 80.0074V83.1461H83.5416V84.0153H79.8959V93.2625C79.8959 93.8902 80.0166 94.3409 80.258 94.6145C80.4995 94.9043 80.918 95.0491 81.5135 95.0491C82.254 95.0491 83.0024 94.9284 83.7589 94.687L83.9521 95.532C83.0668 95.8217 82.2218 95.9666 81.417 95.9666Z" fill="#255766"/>
<path d="M90.1947 96.0873C87.0076 96.0873 85.4141 93.8983 85.4141 89.5201C85.4141 85.142 87.0076 82.953 90.1947 82.953C93.3978 82.953 94.9993 85.142 94.9993 89.5201C94.9993 93.8983 93.3978 96.0873 90.1947 96.0873ZM90.1947 95.2181C91.5628 95.2181 92.5366 94.7272 93.1161 93.7454C93.6955 92.7474 93.9853 91.339 93.9853 89.5201C93.9853 87.7013 93.6955 86.2929 93.1161 85.2949C92.5366 84.3292 91.5628 83.8463 90.1947 83.8463C88.8426 83.8463 87.8768 84.3292 87.2974 85.2949C86.7179 86.2929 86.4282 87.7013 86.4282 89.5201C86.4282 91.3551 86.7179 92.7635 87.2974 93.7454C87.8768 94.7272 88.8426 95.2181 90.1947 95.2181Z" fill="#255766"/>
<path d="M97.568 95.8942V83.1461H98.3406L98.4855 84.7638C98.8879 84.3292 99.4191 83.9107 100.079 83.5083C100.739 83.1381 101.399 82.953 102.059 82.953C102.365 82.953 102.687 82.9771 103.025 83.0254L102.856 84.0636C102.485 83.9992 102.18 83.967 101.938 83.967C101.31 83.967 100.675 84.1521 100.031 84.5223C99.403 84.8925 98.904 85.2949 98.5338 85.7295V95.8942H97.568Z" fill="#255766"/>
<path d="M104.926 100.964C104.411 100.964 103.896 100.9 103.381 100.771L103.598 99.8779C104.033 99.9906 104.475 100.047 104.926 100.047C105.634 100.047 106.198 99.8377 106.616 99.4192C107.018 99.0007 107.348 98.373 107.606 97.536L108.161 95.8942H107.847L103.332 83.1461H104.419L108.475 94.7594H108.572L112.628 83.1461H113.69L108.548 97.7533C108.145 98.8961 107.686 99.717 107.171 100.216C106.672 100.715 105.924 100.964 104.926 100.964Z" fill="#255766"/>
<path d="M121.093 95.8942L121.649 78.9933H123.049L128.554 92.8279L134.059 78.9933H135.435L135.966 95.8942H135L134.566 80.4903H134.445L129.23 93.7212H127.902L122.639 80.4903H122.518L122.083 95.8942H121.093Z" fill="#255766"/>
<path d="M142.535 96.0873C141.376 96.0873 140.499 95.7493 139.903 95.0733C139.291 94.4133 138.985 93.5763 138.985 92.5623V92.1036C138.985 90.0755 140.257 88.9246 142.8 88.651L146.687 88.2647V87.0092C146.687 85.9468 146.446 85.1581 145.963 84.643C145.48 84.128 144.595 83.8704 143.307 83.8704C142.181 83.8704 140.989 84.0475 139.734 84.4016L139.541 83.5324C140.989 83.1461 142.245 82.953 143.307 82.953C144.965 82.953 146.108 83.291 146.736 83.967C147.347 84.6591 147.653 85.7537 147.653 87.2506V95.8942H146.881L146.76 94.5904C145.424 95.5884 144.016 96.0873 142.535 96.0873ZM142.655 95.2181C143.331 95.2181 144.08 95.0572 144.901 94.7353C145.706 94.4133 146.309 94.0834 146.712 93.7454V89.1338L142.993 89.496C140.965 89.6891 139.951 90.5664 139.951 92.1277V92.514C139.951 93.2866 140.185 93.9305 140.651 94.4455C141.118 94.9606 141.786 95.2181 142.655 95.2181Z" fill="#255766"/>
<path d="M150.784 95.8942V83.1461H151.557L151.701 84.5947C152.313 84.1602 153.046 83.7819 153.899 83.46C154.784 83.122 155.645 82.953 156.482 82.953C157.705 82.953 158.526 83.2668 158.945 83.8946C159.347 84.5384 159.548 85.5203 159.548 86.8402V95.8942H158.583V87.0092C158.583 85.8502 158.43 85.0374 158.124 84.5706C157.802 84.1038 157.15 83.8704 156.168 83.8704C155.444 83.8704 154.647 84.0394 153.778 84.3775C152.86 84.7155 152.184 85.0615 151.75 85.4157V95.8942H150.784Z" fill="#255766"/>
<path d="M165.632 96.0873C164.473 96.0873 163.596 95.7493 163 95.0733C162.389 94.4133 162.083 93.5763 162.083 92.5623V92.1036C162.083 90.0755 163.354 88.9246 165.897 88.651L169.785 88.2647V87.0092C169.785 85.9468 169.543 85.1581 169.06 84.643C168.577 84.128 167.692 83.8704 166.404 83.8704C165.278 83.8704 164.087 84.0475 162.831 84.4016L162.638 83.5324C164.087 83.1461 165.342 82.953 166.404 82.953C168.062 82.953 169.205 83.291 169.833 83.967C170.445 84.6591 170.75 85.7537 170.75 87.2506V95.8942H169.978L169.857 94.5904C168.521 95.5884 167.113 96.0873 165.632 96.0873ZM165.753 95.2181C166.429 95.2181 167.177 95.0572 167.998 94.7353C168.803 94.4133 169.406 94.0834 169.809 93.7454V89.1338L166.091 89.496C164.062 89.6891 163.048 90.5664 163.048 92.1277V92.514C163.048 93.2866 163.282 93.9305 163.749 94.4455C164.215 94.9606 164.883 95.2181 165.753 95.2181Z" fill="#255766"/>
<path d="M180.642 94.3007C181.72 94.3007 182.509 94.526 183.008 94.9767C183.523 95.4435 183.78 96.0551 183.78 96.8116C183.78 97.9867 183.209 98.9766 182.066 99.7814C180.923 100.57 179.378 100.964 177.43 100.964C175.982 100.964 174.823 100.675 173.954 100.095C173.084 99.548 172.65 98.7351 172.65 97.6567C172.65 96.9002 172.988 96.2 173.664 95.5562L174.388 94.8318C173.938 94.5421 173.712 94.1156 173.712 93.5522C173.712 93.1176 173.938 92.6508 174.388 92.1518L175.088 91.2344C174.09 90.4618 173.592 89.2304 173.592 87.5403C173.592 86.0595 173.978 84.9167 174.75 84.1119C175.523 83.3393 176.561 82.953 177.865 82.953C178.605 82.953 179.265 83.0737 179.845 83.3151L183.587 83.1461V84.0636H180.955C181.744 84.8523 182.139 86.0112 182.139 87.5403C182.139 89.0212 181.76 90.1559 181.004 90.9446C180.231 91.7172 179.185 92.1036 177.865 92.1036C177.076 92.1036 176.376 91.9587 175.764 91.669L175.137 92.4899C174.847 92.844 174.702 93.1418 174.702 93.3832C174.702 93.9948 175.169 94.3007 176.102 94.3007H180.642ZM174.533 87.5403C174.533 88.7636 174.823 89.6892 175.402 90.3169C175.982 90.9768 176.803 91.2907 177.865 91.2585C180.07 91.2585 181.173 90.0191 181.173 87.5403C181.173 85.0454 180.07 83.798 177.865 83.798C176.803 83.798 175.982 84.1199 175.402 84.7638C174.823 85.4237 174.533 86.3492 174.533 87.5403ZM177.527 100.071C179.088 100.071 180.368 99.7572 181.366 99.1295C182.332 98.5178 182.815 97.7774 182.815 96.9082C182.815 95.7493 182.034 95.1699 180.473 95.1699H176.006C175.7 95.1699 175.426 95.1457 175.185 95.0974L174.412 95.8459C173.865 96.3449 173.592 96.9243 173.592 97.5843C173.592 98.3569 173.921 98.9605 174.581 99.3951C175.225 99.8458 176.207 100.071 177.527 100.071Z" fill="#255766"/>
<path d="M189.915 96.0873C188.241 96.0873 187.002 95.5401 186.197 94.4455C185.424 93.3832 185.022 91.7414 184.99 89.5201C184.99 87.3955 185.352 85.7698 186.076 84.643C186.8 83.5163 188 82.953 189.674 82.953C191.412 82.953 192.603 83.4922 193.247 84.5706C193.907 85.6651 194.237 87.2747 194.237 89.3994V89.8582H186.004C186.052 91.6287 186.374 92.9566 186.969 93.8419C187.549 94.7272 188.531 95.1699 189.915 95.1699C191.106 95.1699 192.305 94.9687 193.512 94.5663L193.681 95.4354C192.394 95.87 191.138 96.0873 189.915 96.0873ZM186.004 88.989H193.247C193.231 87.2345 192.973 85.9307 192.474 85.0776C191.975 84.2567 191.042 83.8463 189.674 83.8463C188.386 83.8463 187.46 84.2728 186.897 85.1259C186.35 85.979 186.052 87.2667 186.004 88.989Z" fill="#255766"/>
<path d="M209.272 82.953C210.463 82.953 211.308 83.299 211.807 83.9911C212.29 84.6994 212.532 85.6812 212.532 86.9367V95.8942H211.566V87.0092C211.566 85.9307 211.381 85.134 211.011 84.6189C210.624 84.1199 209.94 83.8704 208.958 83.8704C208.266 83.8704 207.558 84.0233 206.834 84.3292C206.126 84.6189 205.522 84.965 205.023 85.3674C205.119 85.8502 205.168 86.3814 205.168 86.9609V95.8942H204.202V87.0092C204.202 85.8985 204.025 85.0937 203.671 84.5947C203.301 84.1119 202.633 83.8704 201.667 83.8704C200.331 83.8704 199.027 84.3855 197.756 85.4157V95.8942H196.79V83.1461H197.562L197.707 84.5947C199.14 83.5002 200.564 82.953 201.981 82.953C203.397 82.953 204.331 83.4922 204.781 84.5706C206.198 83.4922 207.695 82.953 209.272 82.953Z" fill="#255766"/>
<path d="M219.921 96.0873C218.247 96.0873 217.007 95.5401 216.202 94.4455C215.43 93.3832 215.027 91.7414 214.995 89.5201C214.995 87.3955 215.357 85.7698 216.082 84.643C216.806 83.5163 218.005 82.953 219.679 82.953C221.417 82.953 222.609 83.4922 223.252 84.5706C223.912 85.6651 224.242 87.2747 224.242 89.3994V89.8582H216.009C216.058 91.6287 216.379 92.9566 216.975 93.8419C217.554 94.7272 218.536 95.1699 219.921 95.1699C221.112 95.1699 222.311 94.9687 223.518 94.5663L223.687 95.4354C222.399 95.87 221.144 96.0873 219.921 96.0873ZM216.009 88.989H223.252C223.236 87.2345 222.979 85.9307 222.48 85.0776C221.981 84.2567 221.047 83.8463 219.679 83.8463C218.391 83.8463 217.466 84.2728 216.903 85.1259C216.355 85.979 216.058 87.2667 216.009 88.989Z" fill="#255766"/>
<path d="M226.795 95.8942V83.1461H227.568L227.713 84.5947C228.325 84.1602 229.057 83.7819 229.91 83.46C230.795 83.122 231.656 82.953 232.493 82.953C233.717 82.953 234.538 83.2668 234.956 83.8946C235.358 84.5384 235.56 85.5203 235.56 86.8402V95.8942H234.594V87.0092C234.594 85.8502 234.441 85.0374 234.135 84.5706C233.813 84.1038 233.161 83.8704 232.18 83.8704C231.455 83.8704 230.658 84.0394 229.789 84.3775C228.872 84.7155 228.196 85.0615 227.761 85.4157V95.8942H226.795Z" fill="#255766"/>
<path d="M242.319 95.9666C241.402 95.9666 240.758 95.7332 240.388 95.2664C240.018 94.7996 239.832 94.0914 239.832 93.1418V84.0153H237.611V83.1461H239.857V80.1764L240.798 80.0074V83.1461H244.444V84.0153H240.798V93.2625C240.798 93.8902 240.919 94.3409 241.16 94.6145C241.402 94.9043 241.82 95.0491 242.416 95.0491C243.156 95.0491 243.905 94.9284 244.661 94.687L244.854 95.532C243.969 95.8217 243.124 95.9666 242.319 95.9666Z" fill="#255766"/>
<path d="M257.947 87.1782C259.026 87.6289 259.854 88.1922 260.434 88.8682C261.013 89.5443 261.303 90.4135 261.303 91.4758C261.303 94.5502 259.484 96.0873 255.847 96.0873C254.414 96.0873 252.965 95.8057 251.501 95.2423L251.718 94.2765C253.118 94.8399 254.535 95.1216 255.967 95.1216C257.448 95.1216 258.535 94.7996 259.227 94.1558C259.919 93.512 260.265 92.6186 260.265 91.4758C260.265 89.9628 259.339 88.8361 257.488 88.0956L254.567 86.9367C252.684 86.1802 251.742 84.8845 251.742 83.0495C251.742 81.6492 252.177 80.5868 253.046 79.8625C253.931 79.1543 255.146 78.8002 256.692 78.8002C257.915 78.8002 259.17 79.0175 260.458 79.4521L260.289 80.3695C259.018 79.9671 257.778 79.7659 256.571 79.7659C255.331 79.7659 254.382 80.0476 253.722 80.611C253.062 81.1904 252.732 82.0033 252.732 83.0495C252.732 84.4016 253.497 85.3915 255.026 86.0192L257.947 87.1782Z" fill="#255766"/>
<path d="M264.201 100.964C263.686 100.964 263.171 100.9 262.656 100.771L262.873 99.8779C263.308 99.9906 263.751 100.047 264.201 100.047C264.91 100.047 265.473 99.8377 265.891 99.4192C266.294 99.0007 266.624 98.373 266.881 97.536L267.437 95.8942H267.123L262.608 83.1461H263.694L267.751 94.7594H267.847L271.903 83.1461H272.966L267.823 97.7533C267.421 98.8961 266.962 99.717 266.447 100.216C265.948 100.715 265.199 100.964 264.201 100.964Z" fill="#255766"/>
<path d="M278.71 88.8682C279.675 89.1741 280.424 89.5926 280.955 90.1237C281.454 90.6388 281.704 91.4195 281.704 92.4657C281.704 93.5603 281.349 94.4375 280.641 95.0974C279.933 95.7574 278.935 96.0873 277.647 96.0873C276.311 96.0873 275.064 95.8378 273.905 95.3389L274.074 94.4455C275.313 94.9445 276.505 95.194 277.647 95.194C278.613 95.194 279.37 94.9445 279.917 94.4455C280.464 93.9466 280.738 93.2866 280.738 92.4657C280.738 91.7253 280.545 91.1458 280.158 90.7273C279.756 90.3249 279.168 90.003 278.396 89.7616L276.778 89.2063C275.008 88.6429 274.122 87.6128 274.122 86.1158C274.122 85.1018 274.46 84.3211 275.136 83.7739C275.796 83.2266 276.73 82.953 277.937 82.953C278.967 82.953 280.11 83.1622 281.366 83.5807L281.172 84.474C280.013 84.0555 278.935 83.8463 277.937 83.8463C277.052 83.8302 276.36 84.0153 275.861 84.4016C275.362 84.804 275.112 85.3754 275.112 86.1158C275.112 86.7114 275.281 87.1782 275.619 87.5162C275.925 87.8381 276.432 88.1117 277.14 88.3371L278.71 88.8682Z" fill="#255766"/>
<path d="M287.094 95.9666C286.177 95.9666 285.533 95.7332 285.163 95.2664C284.793 94.7996 284.607 94.0914 284.607 93.1418V84.0153H282.386V83.1461H284.632V80.1764L285.573 80.0074V83.1461H289.219V84.0153H285.573V93.2625C285.573 93.8902 285.694 94.3409 285.935 94.6145C286.177 94.9043 286.595 95.0491 287.191 95.0491C287.931 95.0491 288.68 94.9284 289.436 94.687L289.629 95.532C288.744 95.8217 287.899 95.9666 287.094 95.9666Z" fill="#255766"/>
<path d="M296.017 96.0873C294.343 96.0873 293.103 95.5401 292.299 94.4455C291.526 93.3832 291.124 91.7414 291.091 89.5201C291.091 87.3955 291.454 85.7698 292.178 84.643C292.902 83.5163 294.101 82.953 295.775 82.953C297.514 82.953 298.705 83.4922 299.349 84.5706C300.009 85.6651 300.339 87.2747 300.339 89.3994V89.8582H292.105C292.154 91.6287 292.476 92.9566 293.071 93.8419C293.651 94.7272 294.633 95.1699 296.017 95.1699C297.208 95.1699 298.407 94.9687 299.614 94.5663L299.783 95.4354C298.496 95.87 297.24 96.0873 296.017 96.0873ZM292.105 88.989H299.349C299.333 87.2345 299.075 85.9307 298.576 85.0776C298.077 84.2567 297.144 83.8463 295.775 83.8463C294.488 83.8463 293.562 84.2728 292.999 85.1259C292.452 85.979 292.154 87.2667 292.105 88.989Z" fill="#255766"/>
<path d="M315.374 82.953C316.565 82.953 317.41 83.299 317.909 83.9911C318.392 84.6994 318.634 85.6812 318.634 86.9367V95.8942H317.668V87.0092C317.668 85.9307 317.483 85.134 317.113 84.6189C316.726 84.1199 316.042 83.8704 315.06 83.8704C314.368 83.8704 313.66 84.0233 312.936 84.3292C312.227 84.6189 311.624 84.965 311.125 85.3674C311.221 85.8502 311.27 86.3814 311.27 86.9609V95.8942H310.304V87.0092C310.304 85.8985 310.127 85.0937 309.773 84.5947C309.403 84.1119 308.735 83.8704 307.769 83.8704C306.433 83.8704 305.129 84.3855 303.857 85.4157V95.8942H302.892V83.1461H303.664L303.809 84.5947C305.242 83.5002 306.666 82.953 308.083 82.953C309.499 82.953 310.433 83.4922 310.883 84.5706C312.3 83.4922 313.797 82.953 315.374 82.953Z" fill="#255766"/>
</svg>
