<svg xmlns="http://www.w3.org/2000/svg" width="25" height="30" viewBox="0 0 33 32" fill="none">
<path d="M5.41797 10.6299C6.10012 7.59727 9.80077 1.62988 15.0533 1.62988C20.3058 1.62988 21.9993 3.50286 23.7451 6.00656" stroke="#2D3B67" stroke-linecap="round" stroke-linejoin="round"/>
<path d="M20.7441 19.1943L28.7441 25.1943L24.7441 28.1943V16.1943L28.7441 19.1943L20.7441 25.1943" stroke="#39AC8A" stroke-width="1.16667" stroke-linecap="round" stroke-linejoin="round"/>
<path d="M13.0595 10.2578C12.1478 10.4206 10.3754 11.2353 10.3244 13.1883C10.2633 15.5326 13.7493 19.0491 14.6284 21.2958C15.5075 23.5425 15.0191 26.1799 14.134 27.8405C12.52 30.8686 9.26133 30.5203 8.18143 30.0871C6.23321 29.3057 4.07284 25.6915 4.2682 19.4399C4.46356 13.1883 5.14641 11.1369 5.14641 11.1369" stroke="#2D3B67" stroke-width="2" stroke-linecap="round"/>
<circle cx="24.7441" cy="9.62988" r="3.5" stroke="#2D3B67"/>
<circle cx="24.745" cy="9.62988" r="1.5" stroke="#2D3B67"/>
</svg>