<svg width="80" height="80" viewBox="0 0 80 80" fill="none" xmlns="http://www.w3.org/2000/svg">
<g clip-path="url(#clip0_1649_4505)">
<path fill-rule="evenodd" clip-rule="evenodd" d="M19.3892 0H48L72 24V69.5852C72 75.3423 67.0177 79.9999 60.8806 79.9999H19.1406C12.9823 79.9999 8 75.3423 8 69.5852V10.4147C7.99989 4.65756 13.2308 0 19.3892 0Z" fill="#045169"/>
<path d="M48.0513 16.32V0L72 24H56.0342C48.8496 24 47.7187 18.88 48.0513 16.32Z" fill="white" fill-opacity="0.3"/>
<path d="M23.1202 64V50.9091H31.7878V53.1911H25.888V56.3104H31.2125V58.5923H25.888V64H23.1202ZM45.6793 57.4545C45.6793 58.8821 45.4087 60.0966 44.8675 61.098C44.3306 62.0994 43.5977 62.8643 42.6687 63.3928C41.744 63.9169 40.7042 64.179 39.5494 64.179C38.386 64.179 37.342 63.9148 36.4173 63.3864C35.4925 62.858 34.7617 62.093 34.2248 61.0916C33.6879 60.0902 33.4194 58.8778 33.4194 57.4545C33.4194 56.027 33.6879 54.8125 34.2248 53.8111C34.7617 52.8097 35.4925 52.0469 36.4173 51.5227C37.342 50.9943 38.386 50.7301 39.5494 50.7301C40.7042 50.7301 41.744 50.9943 42.6687 51.5227C43.5977 52.0469 44.3306 52.8097 44.8675 53.8111C45.4087 54.8125 45.6793 56.027 45.6793 57.4545ZM42.8732 57.4545C42.8732 56.5298 42.7347 55.75 42.4577 55.1151C42.185 54.4801 41.7994 53.9986 41.3008 53.6705C40.8022 53.3423 40.2184 53.1783 39.5494 53.1783C38.8803 53.1783 38.2965 53.3423 37.7979 53.6705C37.2994 53.9986 36.9116 54.4801 36.6346 55.1151C36.3619 55.75 36.2255 56.5298 36.2255 57.4545C36.2255 58.3793 36.3619 59.1591 36.6346 59.794C36.9116 60.429 37.2994 60.9105 37.7979 61.2386C38.2965 61.5668 38.8803 61.7308 39.5494 61.7308C40.2184 61.7308 40.8022 61.5668 41.3008 61.2386C41.7994 60.9105 42.185 60.429 42.4577 59.794C42.7347 59.1591 42.8732 58.3793 42.8732 57.4545ZM46.6333 53.1911V50.9091H57.3848V53.1911H53.377V64H50.6412V53.1911H46.6333Z" fill="white"/>
</g>
<defs>
<clipPath id="clip0_1649_4505">
<rect width="80" height="80" fill="white"/>
</clipPath>
</defs>
</svg>
