<svg width="24" height="24" viewBox="0 0 24 24" fill="none" xmlns="http://www.w3.org/2000/svg">
<path d="M11.0077 5.75792L6.93272 8.01992C6.61491 8.19725 6.35032 8.45637 6.1664 8.77042C5.98248 9.08446 5.88591 9.44199 5.88672 9.80592V14.1939C5.88591 14.5579 5.98248 14.9154 6.1664 15.2294C6.35032 15.5435 6.61491 15.8026 6.93272 15.9799L11.0077 18.2419C11.3111 18.4108 11.6525 18.4994 11.9997 18.4994C12.3469 18.4994 12.6884 18.4108 12.9917 18.2419L17.0667 15.9799C17.3845 15.8026 17.6491 15.5435 17.833 15.2294C18.017 14.9154 18.1135 14.5579 18.1127 14.1939V9.80592C18.1135 9.44199 18.017 9.08446 17.833 8.77042C17.6491 8.45637 17.3845 8.19725 17.0667 8.01992L12.9917 5.75792C12.6884 5.5891 12.3469 5.50049 11.9997 5.50049C11.6525 5.50049 11.3111 5.5891 11.0077 5.75792Z" stroke="black" stroke-width="1.5"/>
<path d="M17.6988 8.57703L11.9998 12M11.9998 12L6.30078 8.57703M11.9998 12V18.494" stroke="black" stroke-width="1.5"/>
<path d="M21.25 7.889V5.833C21.25 5.01534 20.9252 4.23116 20.347 3.65299C19.7688 3.07482 18.9847 2.75 18.167 2.75H15.083M15.083 21.25H18.167C18.9847 21.25 19.7688 20.9252 20.347 20.347C20.9252 19.7688 21.25 18.9847 21.25 18.167V16.11M2.75 16.111V18.167C2.75 18.9847 3.07482 19.7688 3.65299 20.347C4.23116 20.9252 5.01534 21.25 5.833 21.25H8.917M8.917 2.75H5.833C5.01534 2.75 4.23116 3.07482 3.65299 3.65299C3.07482 4.23116 2.75 5.01534 2.75 5.833V7.89" stroke="black" stroke-width="1.5" stroke-linecap="round" stroke-linejoin="round"/>
</svg>
