<svg width="24" height="24" viewBox="0 0 24 24" fill="none" xmlns="http://www.w3.org/2000/svg">
<rect width="24" height="24" rx="12" fill="#C5D8E8"/>
<path d="M8.40909 18V6.36364H12.3409C13.25 6.36364 13.9962 6.51894 14.5795 6.82955C15.1629 7.13636 15.5947 7.55871 15.875 8.09659C16.1553 8.63447 16.2955 9.24621 16.2955 9.93182C16.2955 10.6174 16.1553 11.2254 15.875 11.7557C15.5947 12.286 15.1648 12.7027 14.5852 13.0057C14.0057 13.3049 13.2652 13.4545 12.3636 13.4545H9.18182V12.1818H12.3182C12.9394 12.1818 13.4394 12.0909 13.8182 11.9091C14.2008 11.7273 14.4773 11.4697 14.6477 11.1364C14.822 10.7992 14.9091 10.3977 14.9091 9.93182C14.9091 9.46591 14.822 9.05871 14.6477 8.71023C14.4735 8.36174 14.1951 8.0928 13.8125 7.90341C13.4299 7.71023 12.9242 7.61364 12.2955 7.61364H9.81818V18H8.40909ZM13.8864 12.7727L16.75 18H15.1136L12.2955 12.7727H13.8864Z" fill="#326C9C"/>
</svg>
