<svg width="100" height="100" viewBox="0 0 100 100" fill="none" xmlns="http://www.w3.org/2000/svg">
<rect width="100" height="100" rx="10" fill="#255766"/>
<path d="M18.3359 39L15 23H15.947L19.0677 37.9943H19.5842L22.9201 23H24.1684L27.4828 37.9943H27.9993L31.12 23H32.067L28.7311 39H26.7941L23.5443 24.1886L20.2944 39H18.3359Z" fill="white"/>
<path d="M33.3518 39V23H40.82V23.8914H34.2557V30.36H40.3465V31.2743H34.2557V38.1086H40.82V39H33.3518Z" fill="white"/>
<path d="M42.8434 39V23H43.7473V30.2457H51.1509V23H52.0548V39H51.1509V31.1371H43.7473V39H42.8434Z" fill="white"/>
<path d="M54.752 39V23H62.2201V23.8914H55.6559V30.36H61.7467V31.2743H55.6559V38.1086H62.2201V39H54.752Z" fill="white"/>
<path d="M72.4435 39L71.2382 34.4971H64.9753L63.7701 39H62.8446L67.1706 23H69.043L73.3905 39H72.4435ZM65.2336 33.5829H71.0015L68.4404 24.0057H67.7947L65.2336 33.5829Z" fill="white"/>
<path d="M84 39H82.9669L79.7601 32.4171C79.301 32.4476 79.0356 32.4629 78.9638 32.4629H75.5849V39H74.6809V23H78.9638C80.3699 23 81.4963 23.4038 82.3428 24.2114C83.175 25.0343 83.5911 26.2 83.5911 27.7086C83.5911 28.8819 83.34 29.8648 82.8378 30.6571C82.3213 31.4343 81.5895 31.96 80.6426 32.2343L84 39ZM78.8993 31.5714C80.0758 31.5714 81.0013 31.2362 81.6756 30.5657C82.3213 29.9105 82.6441 28.9581 82.6441 27.7086C82.6441 26.4743 82.3141 25.5295 81.6541 24.8743C80.9941 24.219 80.0758 23.8914 78.8993 23.8914H75.5849V31.5714H78.8993Z" fill="white"/>
<path d="M17 77.6089V43.3911H24.5252V77.6089H17Z" fill="white"/>
<path d="M25.9893 77.6089L27.106 43.3911H35.3595L43.2245 65.486L51.0896 43.3911H59.2945L60.4112 77.6089H53.1287L52.5947 58.838H52.3519L47.4969 73.2095H38.9522L34.0486 58.838H33.8059L33.2718 77.6089H25.9893Z" fill="white"/>
<path d="M75.4067 57.7137C78.5462 59.0172 80.7795 60.4185 82.1066 61.9176C83.3688 63.3841 84 65.3883 84 67.9302C84 70.9935 82.8995 73.4376 80.6986 75.2626C78.4977 77.0875 75.2286 78 70.8915 78C66.6839 78 63.0264 77.3971 59.9193 76.1913L60.6475 69.4455C61.8451 69.8692 63.4958 70.2439 65.5996 70.5698C67.7681 70.9609 69.6454 71.1564 71.2314 71.1564C74.6299 71.1564 76.3291 70.081 76.3291 67.9302C76.3291 67.1155 76.1025 66.48 75.6494 66.0237C75.1315 65.5675 74.3224 65.095 73.2219 64.6061L67.0075 61.9176C62.7999 60.1252 60.6961 57.0619 60.6961 52.7277C60.6961 49.6969 61.7965 47.318 63.9974 45.5908C66.1984 43.8636 69.1923 43 72.9792 43C75.9245 43 79.145 43.4725 82.6406 44.4176L81.9609 51.1634C78.6595 50.2509 75.5847 49.7947 72.7364 49.7947C71.2799 49.7947 70.1795 50.0554 69.435 50.5768C68.6259 51.0982 68.2213 51.7989 68.2213 52.6788C68.2213 54.1127 69.1599 55.1881 71.0372 55.905L75.4067 57.7137Z" fill="white"/>
</svg>